<?xml version="1.0" standalone="no"?>
<!DOCTYPE svg PUBLIC "-//W3C//DTD SVG 20010904//EN"
 "http://www.w3.org/TR/2001/REC-SVG-20010904/DTD/svg10.dtd">
<svg version="1.0" xmlns="http://www.w3.org/2000/svg"
 width="400.000000pt" height="400.000000pt" viewBox="0 0 400.000000 400.000000"
 preserveAspectRatio="xMidYMid meet">
<metadata>
Created by potrace 1.11, written by Peter Selinger 2001-2013
</metadata>
<g transform="translate(0.000000,400.000000) scale(0.100000,-0.100000)"
fill="#000000" stroke="none">
<path d="M1809 3785 c-81 -16 -114 -32 -158 -79 -27 -27 -43 -36 -69 -36 -38
0 -163 -40 -225 -72 -23 -12 -85 -38 -138 -58 -52 -20 -114 -51 -137 -70 -58
-46 -105 -141 -101 -204 2 -35 -2 -51 -18 -68 -32 -35 -42 -61 -49 -124 -4
-33 -18 -81 -31 -109 -12 -27 -23 -67 -23 -88 0 -54 35 -146 69 -181 l30 -31
-15 -55 c-19 -74 -18 -103 7 -134 21 -27 21 -28 4 -66 -12 -26 -18 -63 -17
-109 0 -124 68 -228 185 -285 56 -28 67 -43 67 -100 0 -50 60 -209 106 -283
53 -86 125 -166 194 -219 53 -40 56 -51 44 -124 -5 -28 -13 -38 -44 -53 -40
-19 -63 -60 -89 -158 l-13 -46 -86 -17 c-161 -32 -276 -115 -356 -259 -55 -99
-92 -271 -65 -305 24 -29 39 -61 39 -80 0 -27 20 -42 57 -42 18 0 41 -4 51 -9
15 -8 38 -18 82 -35 8 -4 29 -15 45 -25 17 -11 37 -20 46 -20 9 -1 23 -8 30
-18 8 -9 28 -22 44 -30 17 -7 37 -17 45 -22 8 -5 33 -17 55 -26 22 -9 48 -20
57 -25 10 -6 22 -10 28 -10 6 0 33 -11 62 -25 28 -14 64 -25 78 -25 14 0 31
-5 36 -10 7 -7 92 -9 250 -6 332 7 444 15 468 32 11 8 39 14 63 14 23 0 45 5
48 10 3 5 28 10 54 10 31 0 53 5 61 15 7 8 25 15 40 15 28 0 85 24 95 41 4 5
14 9 24 9 10 0 26 11 35 25 12 18 25 25 50 25 25 0 38 7 50 25 9 14 24 25 34
25 10 0 40 23 67 50 27 28 54 50 60 50 6 0 22 8 35 18 14 9 36 17 50 17 24 0
25 2 24 70 -5 274 -180 485 -439 528 l-80 13 -18 50 c-37 105 -50 125 -89 145
l-38 19 0 68 0 67 50 40 c28 22 50 42 50 45 0 3 24 31 54 62 95 100 164 247
186 395 l12 80 42 20 c126 61 192 193 167 329 -8 42 -7 52 8 69 42 46 54 116
30 169 -10 21 -7 29 17 62 30 38 30 42 24 177 -1 15 0 44 1 66 1 24 -8 60 -25
97 -16 35 -28 80 -29 110 -2 40 -10 60 -39 100 -20 27 -50 62 -67 78 -23 22
-29 35 -25 53 9 33 -17 67 -73 95 -26 14 -78 55 -116 91 -63 62 -73 68 -165
96 -53 17 -114 42 -134 56 -69 47 -137 68 -228 71 -47 1 -92 5 -100 8 -40 14
-191 46 -216 45 -16 0 -59 -7 -95 -14z"/>
</g>
</svg>
